# xmcd
#
# Track frame offsets: 
#        150
#        15119
#        38907
#        61804
#        86582
#        101414
#        125840
#        144618
#        179479
#        213264
#
# Disc length: 3241 seconds
#
# Revision: 0
# Processed by: cddbd v1.5.2PL0 Copyright (c) Steve Scherf et al.
# Submitted via: ExactAudioCopy v0.99pb5
#
DISCID=820ca70a
DTITLE=Various Artist - DJ Dmitry in the mix (House)
DYEAR=2000
DGENRE=House
TTITLE0=Jean-Jaques Smoothe - 2 People (Mirwais edit)
TTITLE1=Jimmy Sommerville - Safe (Club mix)
TTITLE2=DB Boulevard - Point of view (Point of dub mix)
TTITLE3=Crystal Waters - Enough (Grant Nelson vocal mix)
TTITLE4=B-Watched - Blame it on the weather man (Chicane vocal edit)
TTITLE5=Kreo - Burn for you (The cop 4 turntable)
TTITLE6=Cosmos - Take me whis you
TTITLE7=Weekend Players - 21st century
TTITLE8=Depeche Mode - Free Love (Deep Dish mix)
TTITLE9=York feat. Jamila - Jastamba
EXTD=
EXTT0=
EXTT1=
EXTT2=
EXTT3=
EXTT4=
EXTT5=
EXTT6=
EXTT7=
EXTT8=
EXTT9=
PLAYORDER=
